# xmcd CD database file
#
# Track frame offsets:
#	150
#	18819
#	34214
#	48342
#	65482
#	81919
#	96398
#	116629
#	133334
#	150067
#	166512
#	182347
#	197964
#	217617
#	234559
#	255627
#
# Disc length: 3641 seconds
#
# Revision: 3
# Processed by: cddbd v1.5.2PL0 Copyright (c) Steve Scherf et al.
# Submitted via: CDex 1.51
#
DISCID=c80e3710
DTITLE=Brantley Gilbert - The Devil Don't Sleep
DYEAR=2017
DGENRE=Country
TTITLE0=Rockin' Chairs
TTITLE1=The Ones That Like Me
TTITLE2=The Weekend
TTITLE3=You Could Be That Girl
TTITLE4=Smokin' Gun
TTITLE5=Bro Code
TTITLE6=It's About To Get Dirty
TTITLE7=Tried To Tell Ya
TTITLE8=In My Head
TTITLE9=Way Back
TTITLE10=Baby Be Crazy
TTITLE11=Outlaw In Me
TTITLE12=Bullet In A Bonfire
TTITLE13=The Devil Don't Sleep
TTITLE14=We're Gonna Ride Again
TTITLE15=Three Feet Of Water
EXTD=YEAR: 2017
EXTT0=
EXTT1=
EXTT2=
EXTT3=
EXTT4=
EXTT5=
EXTT6=
EXTT7=
EXTT8=
EXTT9=
EXTT10=
EXTT11=
EXTT12=
EXTT13=
EXTT14=
EXTT15=
PLAYORDER=
